<svg width="20" height="20" viewBox="0 0 20 20" fill="none" xmlns="http://www.w3.org/2000/svg" class="gp-wiki-badge">
	<path d="M20 10C20 10.525 19.75 11.0375 19.25 11.35C18.775 11.6625 18.5 12.175 18.5 12.7125C18.5 12.9625 18.5625 13.2125 18.6875 13.45C18.8125 13.7 18.875 13.95 18.875 14.2C18.875 15.0125 18.2375 15.7625 17.3375 15.8C16.5 15.8375 15.8375 16.5 15.8 17.3375C15.7625 18.2375 15.0125 18.875 14.2 18.875C13.95 18.875 13.7 18.8125 13.45 18.6875C13.2125 18.5625 12.9625 18.5 12.7125 18.5C12.175 18.5 11.6625 18.775 11.35 19.25C11.0375 19.75 10.525 20 10 20C9.475 20 8.9625 19.75 8.65 19.25C8.3375 18.775 7.825 18.5 7.2875 18.5C7.0375 18.5 6.7875 18.5625 6.55 18.6875C6.3 18.8125 6.05 18.875 5.8 18.875C4.9875 18.875 4.2375 18.2375 4.2 17.3375C4.1625 16.5 3.5 15.8375 2.6625 15.8C1.7625 15.7625 1.125 15.0125 1.125 14.2C1.125 13.95 1.1875 13.7 1.3125 13.45C1.4375 13.2125 1.5 12.9625 1.5 12.7125C1.5 12.175 1.225 11.6625 0.75 11.35C0.25 11.0375 0 10.525 0 10C0 9.475 0.25 8.9625 0.75 8.65C1.225 8.3375 1.5 7.825 1.5 7.2875C1.5 7.0375 1.4375 6.7875 1.3125 6.55C1.1875 6.3 1.125 6.05 1.125 5.8C1.125 4.9875 1.7625 4.2375 2.6625 4.2C3.5 4.1625 4.1625 3.5 4.2 2.6625C4.2375 1.7625 4.9875 1.125 5.8 1.125C6.05 1.125 6.3 1.1875 6.55 1.3125C6.7875 1.4375 7.0375 1.5 7.2875 1.5C7.825 1.5 8.3375 1.225 8.65 0.75C8.9625 0.25 9.475 0 10 0C10.525 0 11.0375 0.25 11.35 0.75C11.8 1.45 12.7125 1.7 13.45 1.3125C13.7 1.1875 13.95 1.125 14.2 1.125C15.0125 1.125 15.7625 1.7625 15.8 2.6625C15.8375 3.5 16.5 4.1625 17.3375 4.2C18.2375 4.2375 18.875 4.9875 18.875 5.8C18.875 6.05 18.8125 6.3 18.6875 6.55C18.5625 6.7875 18.5 7.0375 18.5 7.2875C18.5 7.825 18.775 8.3375 19.25 8.65C19.75 8.9625 20 9.475 20 10Z" fill="#121212"></path>
	<path d="M5 8.30905L10.096 3V4.72185L5.68494 8.25165L7.79456 14.1633H7.43839L5 8.30905Z" fill="#F58120"></path>
	<path d="M6.0957 8.30891L12.452 3.34424L12.2876 4.89391L7.84916 7.70627L13.5479 4.43475L13.3287 5.98441L8.75328 7.82106L14.5068 5.84092L14.1232 7.18971L7.54778 8.94026L6.0957 8.30891Z" fill="white"></path>
	<path d="M7.46484 9.25623L9.49227 16.0002L14.6978 13.2165L14.9992 7.3335L7.46484 9.25623ZM13.191 13.1017C12.9444 13.3313 12.643 13.3887 12.4786 13.5609C12.369 13.6757 12.3142 13.8478 12.3142 13.8478C12.1225 13.5609 11.9307 13.4748 11.7389 13.4461C11.5197 13.4174 11.1635 13.5322 10.6156 13.1304C10.232 12.8721 10.1498 12.4704 10.1498 12.2408V12.2121C10.1498 12.1834 10.1498 12.1834 10.1498 12.1547C10.1498 12.126 10.1498 12.0973 10.1498 12.0686C10.1772 11.839 10.3142 11.6094 10.643 11.4085C10.643 11.4085 10.4786 11.7816 10.7526 12.126C10.917 12.3269 11.2183 12.3843 11.4101 12.1834C11.4923 12.0973 11.5471 11.9538 11.5471 11.839C11.5745 11.5807 11.5197 11.3512 11.3005 11.2077C10.9443 10.9781 10.8348 10.605 10.9991 10.3467C10.9991 10.3467 11.1361 10.7772 11.3827 10.7198C11.5745 10.6624 11.5745 10.4615 11.4923 10.3754C11.4101 10.2893 10.8896 9.68669 11.4649 9.11274C11.4649 9.11274 11.7937 8.79707 12.232 8.71098C12.2594 8.71098 12.2594 8.71098 12.2868 8.71098C12.0403 8.79707 11.7663 9.02665 11.7115 9.31363C11.7115 9.31363 11.7115 9.31363 11.7115 9.34232C11.6567 9.658 11.7937 9.94497 12.0129 10.1746C12.1772 10.3467 12.369 10.4902 12.4786 10.7772C12.369 10.7485 12.2868 10.8059 12.232 10.892C12.1772 10.9781 12.1498 11.1216 12.232 11.2364C12.2868 11.2938 12.3416 11.3512 12.4238 11.3512C12.4512 11.3512 12.4786 11.3512 12.506 11.3225C12.506 11.3225 12.5334 11.3225 12.5334 11.2938C12.6156 11.2364 12.6704 11.0929 12.6156 11.0068C12.6978 11.0355 12.7526 11.2364 12.7526 11.3225C12.7526 11.4372 12.7252 11.5233 12.6978 11.6381C12.6704 11.6955 12.6156 11.7816 12.6156 11.8677C12.5882 11.9538 12.5882 12.0112 12.5882 12.0973C12.5882 12.1834 12.6156 12.2695 12.6704 12.3269C12.8348 12.4991 13.054 12.2408 13.1088 12.0686C13.1636 11.839 13.1088 11.6094 12.9444 11.4372C12.9444 11.4372 13.191 11.5233 13.4375 11.9825C13.5745 12.3556 13.4375 12.8721 13.191 13.1017Z" fill="#F58120"></path>
</svg>